<?xml version="1.0" encoding="UTF-8"?><svg id="Layer_2" xmlns="http://www.w3.org/2000/svg" viewBox="0 0 180.84 93.93"><g id="Layer_1-2"><path d="m4.2,68.89c-.76-1.42-1.14-3.37-1.14-5.88V9.48c0-1.25-.21-2.25-.64-3.01-.43-.76-1.23-1.6-2.42-2.52L4.35,0c2.04,1.12,3.44,2.39,4.2,3.8.76,1.42,1.14,3.38,1.14,5.88v53.53c0,1.19.21,2.16.64,2.91.43.76,1.23,1.63,2.42,2.62l-4.35,3.95c-2.04-1.12-3.44-2.39-4.2-3.8Z"/><path d="m26.67,13.33c-.92-.92-1.38-2.01-1.38-3.26s.46-2.32,1.38-3.21c.92-.89,2.01-1.33,3.26-1.33s2.32.44,3.21,1.33,1.33,1.96,1.33,3.21-.44,2.34-1.33,3.26c-.89.92-1.96,1.38-3.21,1.38s-2.34-.46-3.26-1.38Zm1.04,55.56c-.76-1.42-1.14-3.37-1.14-5.88V25.19h6.62v38.02c0,1.19.21,2.16.64,2.91.43.76,1.23,1.63,2.42,2.62l-4.35,3.95c-2.04-1.12-3.44-2.39-4.2-3.8Z"/><path d="m59.36,70.32c-1.45-1.58-2.77-4.35-3.95-8.3l-11.26-36.84h6.42l10.96,36.44c.72,2.44,1.32,4,1.78,4.69.46.69,1.09,1.04,1.88,1.04.85,0,1.51-.36,1.98-1.09.46-.72,1.05-2.27,1.78-4.64l10.96-36.44h6.42l-11.16,36.84c-1.19,3.95-2.5,6.72-3.95,8.3-1.45,1.58-3.42,2.37-5.93,2.37s-4.48-.79-5.93-2.37Z"/><path d="m105.48,70.32c-1.45-1.58-2.77-4.35-3.95-8.3l-11.26-36.84h6.42l10.96,36.44c.72,2.44,1.32,4,1.78,4.69.46.69,1.09,1.04,1.88,1.04.85,0,1.51-.36,1.98-1.09.46-.72,1.05-2.27,1.78-4.64l10.96-36.44h6.42l-11.16,36.84c-1.19,3.95-2.5,6.72-3.95,8.3-1.45,1.58-3.42,2.37-5.93,2.37s-4.48-.79-5.93-2.37Z"/><path d="m180.84,25.19v52.54c0,5.46-1.45,9.53-4.35,12.2-2.9,2.67-7.28,4-13.13,4h-11.95v-5.24h11.95c7.24,0,10.86-3.69,10.86-11.06v-13.93c-3.23,5.99-8.56,8.99-16,8.99-4.94,0-8.81-1.46-11.61-4.39-2.8-2.93-4.2-6.93-4.2-12v-22.62c0-1.19-.21-2.16-.64-2.91-.43-.76-1.24-1.63-2.42-2.62l4.44-3.95c1.98,1.12,3.34,2.39,4.1,3.8.76,1.42,1.13,3.38,1.13,5.88v21.93c0,3.69.94,6.54,2.81,8.54,1.88,2.01,4.53,3.01,7.95,3.01,3.88,0,7.18-1.33,9.88-4,2.7-2.67,4.21-6.04,4.54-10.12v-28.05h6.62Z"/></g></svg>