<svg width="264" height="264" viewBox="0 0 264 264" fill="none" xmlns="http://www.w3.org/2000/svg">
<g clip-path="url(#clip0_1064_1265)">
<mask id="mask0_1064_1265" style="mask-type:luminance" maskUnits="userSpaceOnUse" x="0" y="0" width="264" height="264">
<path d="M263.435 0.115967H0V263.551H263.435V0.115967Z" fill="white"/>
</mask>
<g mask="url(#mask0_1064_1265)">
<path d="M131.718 78.345C121.139 78.345 110.798 81.4821 102.001 87.3595C93.205 93.237 86.3491 101.591 82.3007 111.365C78.2522 121.139 77.1929 131.894 79.2568 142.27C81.3207 152.645 86.4151 162.176 93.8957 169.657C101.376 177.138 110.907 182.232 121.283 184.296C131.659 186.36 142.414 185.3 152.188 181.252C161.962 177.204 170.316 170.348 176.193 161.551C182.071 152.755 185.208 142.413 185.208 131.834C185.207 117.648 179.572 104.043 169.541 94.0122C159.509 83.9811 145.904 78.3454 131.718 78.345ZM131.718 162.803C125.593 162.803 119.606 160.987 114.513 157.584C109.42 154.181 105.451 149.344 103.107 143.685C100.763 138.027 100.15 131.8 101.345 125.793C102.54 119.785 105.489 114.267 109.82 109.936C114.151 105.605 119.669 102.656 125.677 101.461C131.684 100.266 137.911 100.879 143.57 103.223C149.228 105.567 154.065 109.536 157.468 114.629C160.871 119.722 162.687 125.709 162.687 131.834C162.687 140.048 159.424 147.925 153.616 153.732C147.809 159.54 139.932 162.803 131.718 162.803Z" fill="#84F403"/>
<path d="M131.721 0.115975C106.472 0.107047 81.7517 7.35836 60.508 21.0057C39.2642 34.653 22.3924 54.1208 11.9034 77.0888C1.4144 100.057 -2.2494 125.556 1.34865 150.549C4.9467 175.541 15.6548 198.971 32.1969 218.047L32.2346 218.089C34.1059 220.32 36.7374 221.778 39.6209 222.182C42.5044 222.586 45.4353 221.907 47.8476 220.276C50.2599 218.646 51.9824 216.179 52.6825 213.353C53.3826 210.527 53.0105 207.541 51.6382 204.973C51.2871 204.324 50.877 203.709 50.4129 203.135L50.2333 202.927C33.2296 183.527 23.6747 158.715 23.2745 132.921C22.8744 107.127 31.655 82.03 48.0487 62.1118C64.4424 42.1935 87.3819 28.7503 112.771 24.1823C138.161 19.6144 164.347 24.2192 186.656 37.1745C208.964 50.1298 225.941 70.5922 234.556 94.9082C243.172 119.224 242.864 145.811 233.689 169.921C224.513 194.031 207.067 214.095 184.465 226.531C161.863 238.967 135.577 242.964 110.3 237.81C108.714 237.227 107.022 236.988 105.337 237.11C103.651 237.232 102.011 237.711 100.526 238.517C99.04 239.322 97.7432 240.435 96.7215 241.781C95.6998 243.127 94.9767 244.675 94.6004 246.322C94.2241 247.97 94.2032 249.679 94.5391 251.335C94.875 252.991 95.56 254.556 96.5484 255.927C97.5369 257.297 98.8061 258.442 100.271 259.283C101.737 260.125 103.365 260.644 105.047 260.807C123.093 264.54 141.721 264.445 159.728 260.528C177.734 256.61 194.719 248.958 209.583 238.065C224.447 227.173 236.859 213.282 246.019 197.291C255.178 181.301 260.88 163.566 262.755 145.234C264.631 126.902 262.639 108.38 256.908 90.8659C251.177 73.3518 241.835 57.2352 229.485 43.5579C217.135 29.8806 202.053 18.947 185.212 11.464C168.372 3.98094 150.149 0.114971 131.721 0.115975Z" fill="#038F87"/>
<path d="M205.035 75.2745C204.118 74.0567 202.937 73.0628 201.58 72.3675L201.94 71.913L198.691 71.338L197.491 71.126L197.439 71.1943C195.803 71.11 194.172 71.4246 192.685 72.1112C191.198 72.7977 189.9 73.8355 188.903 75.1352C187.906 76.4349 187.24 77.9574 186.963 79.5717C186.685 81.1859 186.804 82.8434 187.31 84.4014L187.254 84.4732L187.773 85.5746L189.175 88.5516L189.466 88.1725C199.875 101.883 205.086 118.84 204.173 136.029C203.26 153.219 196.283 169.528 184.48 182.059C172.678 194.59 156.815 202.531 139.711 204.471C122.607 206.411 105.369 202.224 91.06 192.654C76.7513 183.084 66.2987 168.752 61.5597 152.203C56.8207 135.654 58.1022 117.961 65.1765 102.268C72.2507 86.5748 84.6595 73.8979 100.198 66.4899C115.736 59.0819 133.398 57.4226 150.044 61.8069C150.862 62.1458 151.721 62.376 152.599 62.4914L153 62.6082L153.053 62.5381L153.265 62.5543C155.964 62.7029 158.612 61.7787 160.632 59.9833C162.143 58.6384 163.218 56.873 163.72 54.9132C164.222 52.9534 164.128 50.8883 163.449 48.9826L163.506 48.9089L162.937 47.7842L161.499 44.9401L161.172 45.3677C160.165 44.3204 158.951 43.4934 157.608 42.9387V42.9117C157.55 42.8902 157.489 42.8758 157.428 42.8542H157.417H157.394C156.808 42.6354 156.203 42.4712 155.587 42.3638C143.063 39.0112 129.975 38.3253 117.169 40.3504C104.363 42.3755 92.1252 47.0665 81.2469 54.12C70.3686 61.1734 61.0924 70.4321 54.0183 81.2969C46.9443 92.1618 42.23 104.391 40.1806 117.193C38.1312 129.995 38.7923 143.084 42.1211 155.614C45.4499 168.144 51.3723 179.836 59.505 189.933C67.6377 200.03 77.7997 208.307 89.3332 214.228C100.867 220.15 113.515 223.584 126.46 224.309C128.256 224.413 130.049 224.465 131.839 224.465C149.138 224.448 166.086 219.586 180.763 210.429C195.44 201.272 207.258 188.186 214.877 172.656C222.497 157.125 225.614 139.771 223.874 122.559C222.135 105.348 215.609 88.9662 205.035 75.2745Z" fill="#04CA7D"/>
</g>
</g>
<path d="M254.225 9.425V3.42875H257.264C257.508 3.42875 257.773 3.49917 258.06 3.64C258.347 3.77542 258.591 3.98667 258.791 4.27375C258.997 4.55542 259.1 4.91292 259.1 5.34625C259.1 5.785 258.994 6.15875 258.783 6.4675C258.572 6.77083 258.315 7.00104 258.011 7.15812C257.713 7.31521 257.432 7.39375 257.166 7.39375H254.972V6.41875H256.76C256.939 6.41875 257.131 6.32938 257.337 6.15063C257.548 5.97188 257.654 5.70375 257.654 5.34625C257.654 4.97792 257.548 4.72875 257.337 4.59875C257.131 4.46875 256.95 4.40375 256.793 4.40375H255.541V9.425H254.225ZM257.849 6.5975L259.344 9.425H257.898L256.435 6.5975H257.849ZM256.5 13C255.601 13 254.759 12.8321 253.973 12.4963C253.188 12.1604 252.497 11.6946 251.901 11.0988C251.305 10.5029 250.84 9.81229 250.504 9.02687C250.168 8.24146 250 7.39917 250 6.5C250 5.60083 250.168 4.75854 250.504 3.97312C250.84 3.18771 251.305 2.49708 251.901 1.90125C252.497 1.30542 253.188 0.839584 253.973 0.50375C254.759 0.167916 255.601 0 256.5 0C257.399 0 258.241 0.167916 259.027 0.50375C259.812 0.839584 260.503 1.30542 261.099 1.90125C261.695 2.49708 262.16 3.18771 262.496 3.97312C262.832 4.75854 263 5.60083 263 6.5C263 7.39917 262.832 8.24146 262.496 9.02687C262.16 9.81229 261.695 10.5029 261.099 11.0988C260.503 11.6946 259.812 12.1604 259.027 12.4963C258.241 12.8321 257.399 13 256.5 13ZM256.5 11.44C257.41 11.44 258.239 11.2179 258.986 10.7738C259.734 10.3296 260.33 9.73375 260.774 8.98625C261.218 8.23875 261.44 7.41 261.44 6.5C261.44 5.59 261.218 4.76125 260.774 4.01375C260.33 3.26625 259.734 2.67042 258.986 2.22625C258.239 1.78208 257.41 1.56 256.5 1.56C255.59 1.56 254.761 1.78208 254.014 2.22625C253.266 2.67042 252.67 3.26625 252.226 4.01375C251.782 4.76125 251.56 5.59 251.56 6.5C251.56 7.41 251.782 8.23875 252.226 8.98625C252.67 9.73375 253.266 10.3296 254.014 10.7738C254.761 11.2179 255.59 11.44 256.5 11.44Z" fill="white"/>
<defs>
<clipPath id="clip0_1064_1265">
<rect width="263.435" height="263.435" fill="white" transform="translate(0 0.115967)"/>
</clipPath>
</defs>
</svg>
